<svg
      viewBox="0 0 52 52"
      fill="none"
      xmlns="http://www.w3.org/2000/svg"
    >
      <path
        d="M16.25 36.2914C16.25 30.7101 18.5479 25.6576 22.2421 22.0208C20.2513 21.1067 18.0446 20.5844 15.7082 20.5844C7.03349 20.5844 0.000640869 27.617 0.000640869 36.292C0.000640869 44.9672 7.03372 52.0008 15.7094 52.0008C18.0453 52.0008 20.2515 51.478 22.2433 50.5644C18.5486 46.9268 16.2507 41.8747 16.2507 36.2926L16.25 36.2914Z"
        fill="black"
      />
      <path
        d="M36.2908 35.7502C30.7095 35.7502 25.6569 33.4524 22.0201 29.7559C21.1061 31.7485 20.5838 33.9552 20.5838 36.2916C20.5838 44.9668 27.6164 52.0003 36.2914 52.0003C44.9666 52.0003 52.0001 44.9673 52.0001 36.2916C52.0001 33.9557 51.4774 31.7495 50.5638 29.7559C46.9262 33.4524 41.874 35.7502 36.2919 35.7502H36.2908Z"
        fill="black"
      />
      <path
        d="M36.291 0.00116049C33.9551 0.00116049 31.7488 0.523923 29.7552 1.43751C33.4518 5.07511 35.7496 10.1272 35.7496 15.7093C35.7496 21.2906 33.4518 26.3432 29.7552 29.98C31.7479 30.8941 33.9546 31.4164 36.291 31.4164C44.9662 31.4164 51.9997 24.3837 51.9997 15.7088C51.9997 7.03354 44.9666 0 36.291 0V0.00116049Z"
        fill="black"
      />
      <path
        d="M15.7093 16.251C21.2906 16.251 26.3432 18.5488 29.98 22.2431C30.8941 20.2522 31.4164 18.0455 31.4164 15.7092C31.4164 7.03443 24.3837 0.00158691 15.7088 0.00158691C7.03354 0.00158691 0 7.03466 0 15.7103C0 18.0462 0.522762 20.2525 1.43635 22.2442C5.07395 18.5495 10.1261 16.2517 15.7082 16.2517L15.7093 16.251Z"
        fill="black"
      />
    </svg>