<svg
      viewBox="0 0 164 45"
      fill="none"
      xmlns="http://www.w3.org/2000/svg"
    >
      <path
        fillRule="evenodd"
        clipRule="evenodd"
        d="M26.3294 15.6121C24.4752 15.6121 20.794 16.4783 19 17.1608V13.8636C20.7455 13.1996 23.9898 12.0724 26.3294 12.0724C34.189 12.0724 40.1607 17.8808 40.1607 25.1251C40.1607 25.1251 40.1607 26.6738 39.8826 27.2824H36.9457C37.1962 26.5793 37.3235 25.8587 37.3235 25.1251C37.3235 20.6398 33.3557 15.6121 26.3294 15.6121Z"
        fill="white"
      />
      <path
        fillRule="evenodd"
        clipRule="evenodd"
        d="M27.2732 34.0666C26.1645 35.1189 24.9055 35.9688 23.5039 36.6221C22.1955 37.2319 20.8839 37.6316 19.5704 37.8155L19.5669 37.816C18.2766 37.9909 17.0721 37.9537 15.9626 37.6837L15.9417 37.6783C15.1663 37.4682 14.468 37.1328 13.8797 36.6431L11.2187 39.1812C11.9542 39.8244 12.8347 40.3194 13.8753 40.655C15.3897 41.1282 17.0582 41.2728 18.8899 41.0704C20.7246 40.8676 22.5491 40.3453 24.3653 39.4988C26.5458 38.4825 28.4188 37.1446 29.9965 35.4943C31.5856 33.8198 32.6723 32.0358 33.3049 30.1527L33.3056 30.1508C33.9281 28.3062 33.9623 26.5373 33.4351 24.7766C32.9149 23.0393 31.9995 21.8453 30.6466 21.1297L30.6348 21.1234C29.2016 20.338 27.4537 19.9463 25.3607 19.9983L25.3581 19.9984C23.2518 20.0437 21.037 20.4007 18.7117 21.0761L18.7 21.0795C17.1898 21.4945 15.7992 21.8236 14.5293 22.0657L14.5153 22.0684C13.1872 22.2976 11.9786 22.2452 10.926 21.8385C9.70487 21.3667 8.87739 20.2421 8.41512 18.6983C7.9897 17.2776 8.15169 15.832 8.76401 14.4639C9.33971 13.1775 10.1921 12.0197 11.2805 10.9771C12.3878 9.90301 13.6512 9.05017 15.0621 8.4122C16.3682 7.80397 17.6706 7.40834 18.9678 7.23228C20.2716 7.0499 21.4787 7.0856 22.577 7.36506C23.3595 7.55325 24.0649 7.88251 24.66 8.38256L27.3657 5.85708C26.6082 5.19457 25.706 4.7 24.6437 4.38398L24.6313 4.38031C23.0959 3.89784 21.4206 3.75685 19.5967 3.97483L19.5872 3.97596C17.7691 4.17135 15.9701 4.68219 14.1884 5.51263C12.0267 6.52019 10.1563 7.86538 8.56608 9.54073L8.56344 9.5435C6.98802 11.1917 5.89722 12.9679 5.24746 14.8627C4.63935 16.6752 4.60935 18.4399 5.14336 20.2232C5.7297 22.1813 6.65462 23.451 7.8998 24.1666C9.25867 24.93 10.9327 25.2841 12.9582 25.1682C15.0473 25.0417 17.3387 24.625 19.8355 23.9099C21.1918 23.5139 22.532 23.2439 23.8557 23.1016C25.23 22.9478 26.4765 23.0443 27.5715 23.4355C28.8086 23.8629 29.7199 24.8207 30.1633 26.3016C30.5913 27.7309 30.4376 29.1821 29.8247 30.5549C29.2606 31.847 28.3926 33.012 27.2732 34.0666Z"
        fill="white"
      />
      <path
        fillRule="evenodd"
        clipRule="evenodd"
        d="M16.8583 29.0575C18.7538 28.4239 20.4311 27.5869 21.8773 26.4614L21.8773 30.0011C20.1838 31.3191 19.748 31.7561 17.5926 32.4767C13.7795 33.7514 10.002 33.7125 6.95417 32.5299C3.92684 31.3553 1.41347 28.9455 0.634727 25.3195C0.37336 24.1026 0.344483 23.4152 0.498383 22.1977L3.29269 22.1977C3.19663 22.9576 3.22308 23.6949 3.37525 24.4034C3.81317 26.4424 5.31534 28.1871 7.79673 29.1499C10.2577 30.1047 13.482 30.1862 16.8583 29.0575Z"
        fill="white"
      />
      <path
        d="M58.5849 3.24696V21.3106H54.2189V3.24696H58.5849Z"
        fill="white"
      />
      <path
        d="M79.6797 3.24696V21.3106H75.9753L68.7869 10.8852H68.6722V21.3106H64.3062V3.24696H68.0636L75.1726 13.6547H75.3226V3.24696H79.6797Z"
        fill="white"
      />
      <path
        d="M95.7338 8.66251C95.675 8.01571 95.4133 7.51296 94.9488 7.15428C94.4902 6.78971 93.8345 6.60743 92.9819 6.60743C92.4175 6.60743 91.947 6.68093 91.5707 6.82793C91.1944 6.97493 90.9121 7.1778 90.724 7.43652C90.5358 7.68936 90.4388 7.98043 90.4329 8.30971C90.4212 8.58019 90.4741 8.81834 90.5917 9.02414C90.7152 9.22994 90.8916 9.41222 91.1209 9.57099C91.3561 9.72387 91.6383 9.85911 91.9676 9.97671C92.2969 10.0943 92.6674 10.1972 93.079 10.2854L94.6313 10.6382C95.5251 10.8323 96.313 11.091 96.9951 11.4144C97.6831 11.7378 98.2593 12.1229 98.7238 12.5698C99.1942 13.0167 99.55 13.5312 99.7911 14.1133C100.032 14.6955 100.156 15.3482 100.162 16.0714C100.156 17.2121 99.8675 18.1912 99.2971 19.0085C98.7268 19.8258 97.9065 20.4521 96.8363 20.8872C95.772 21.3223 94.4872 21.5399 92.9819 21.5399C91.4708 21.5399 90.1536 21.3135 89.0305 20.8607C87.9074 20.408 87.0342 19.72 86.4109 18.7968C85.7877 17.8737 85.4672 16.7065 85.4496 15.2952H89.6303C89.6656 15.8774 89.8214 16.3625 90.0978 16.7506C90.3741 17.1386 90.7534 17.4327 91.2356 17.6326C91.7236 17.8325 92.2881 17.9325 92.929 17.9325C93.517 17.9325 94.0168 17.8531 94.4284 17.6943C94.8459 17.5356 95.1664 17.3151 95.3898 17.0328C95.6133 16.7506 95.7279 16.4272 95.7338 16.0626C95.7279 15.7215 95.6221 15.4305 95.4163 15.1894C95.2105 14.9424 94.893 14.7308 94.4637 14.5544C94.0403 14.3721 93.4994 14.2045 92.8408 14.0516L90.9533 13.6106C89.3892 13.2519 88.1573 12.6727 87.2577 11.873C86.358 11.0675 85.9111 9.97965 85.917 8.60959C85.9111 7.49238 86.211 6.51335 86.8167 5.6725C87.4223 4.83164 88.2602 4.17602 89.3304 3.70561C90.4006 3.2352 91.6207 3 92.9908 3C94.3902 3 95.6044 3.23814 96.6335 3.71443C97.6684 4.18484 98.471 4.84634 99.0414 5.69896C99.6117 6.55157 99.9028 7.53942 99.9145 8.66251H95.7338Z"
        fill="white"
      />
      <path
        d="M103.883 3.24696H108.76L112.58 10.8058H112.738L116.557 3.24696H121.435L114.829 15.2776V21.3106H110.489V15.2776L103.883 3.24696Z"
        fill="white"
      />
      <path
        d="M141.619 3.24696V21.3106H137.915L130.726 10.8852H130.612V21.3106H126.246V3.24696H130.003L137.112 13.6547H137.262V3.24696H141.619Z"
        fill="white"
      />
      <path
        d="M147.345 21.3106V3.24696H151.711V10.8852H151.949L157.92 3.24696H163.062L156.659 11.3085L163.177 21.3106H157.955L153.457 14.2104L151.711 16.4154V21.3106H147.345Z"
        fill="white"
      />
      <path
        d="M61.7296 31.7792C61.6569 31.0479 61.3341 30.4663 60.761 30.0344C60.188 29.6025 59.4674 29.3865 58.5993 29.3865C57.9878 29.3865 57.4489 29.4913 56.9828 29.7008C56.521 29.9104 56.1575 30.2012 55.8923 30.5732C55.6315 30.941 55.501 31.3601 55.501 31.8305C55.501 32.1769 55.5759 32.4805 55.7255 32.7413C55.8752 33.0022 56.0762 33.2267 56.3285 33.4149C56.5851 33.5988 56.8673 33.757 57.1752 33.8896C57.4874 34.0221 57.8017 34.1333 58.1182 34.2231L59.5038 34.6208C59.9228 34.7363 60.3419 34.8838 60.761 35.0634C61.1801 35.2431 61.5628 35.4697 61.9092 35.7434C62.2599 36.0128 62.54 36.3442 62.7496 36.7377C62.9634 37.1268 63.0703 37.5951 63.0703 38.1425C63.0703 38.8438 62.8885 39.4746 62.525 40.0348C62.1615 40.595 61.6398 41.0397 60.9599 41.369C60.2799 41.694 59.4653 41.8565 58.5159 41.8565C57.6221 41.8565 56.846 41.709 56.1874 41.4139C55.5288 41.1146 55.0114 40.7019 54.635 40.1759C54.2587 39.6499 54.047 39.0405 54 38.3477H55.2316C55.2744 38.8652 55.4454 39.3035 55.7448 39.6627C56.0441 40.022 56.4333 40.2956 56.9122 40.4838C57.3912 40.6677 57.9258 40.7596 58.5159 40.7596C59.1702 40.7596 59.7518 40.6506 60.2607 40.4325C60.7739 40.2101 61.1758 39.9022 61.4666 39.5088C61.7617 39.1111 61.9092 38.6492 61.9092 38.1232C61.9092 37.6785 61.7938 37.3064 61.5628 37.0071C61.3319 36.7035 61.0091 36.449 60.5942 36.2437C60.1837 36.0385 59.7069 35.8567 59.1638 35.6985L57.5922 35.2366C56.5616 34.9287 55.7619 34.5032 55.1931 33.9601C54.6244 33.417 54.34 32.7242 54.34 31.8818C54.34 31.1762 54.5281 30.5561 54.9045 30.0215C55.2851 29.4827 55.7982 29.0636 56.444 28.7643C57.094 28.4607 57.8231 28.3088 58.6314 28.3088C59.4482 28.3088 60.1709 28.4585 60.7995 28.7579C61.4281 29.0572 61.9263 29.4699 62.2941 29.9959C62.6662 30.5176 62.865 31.112 62.8907 31.7792H61.7296Z"
        fill="white"
      />
      <path
        d="M70.5805 29.5725V28.4949H80.1063V29.5725H75.9432V41.632H74.7436V29.5725H70.5805Z"
        fill="white"
      />
      <path
        d="M96.9819 28.4949H98.1814V37.1931C98.1814 38.0869 97.9719 38.8866 97.5528 39.5922C97.1337 40.2935 96.55 40.8473 95.8016 41.2536C95.0575 41.6555 94.1915 41.8565 93.2037 41.8565C92.2201 41.8565 91.3541 41.6534 90.6057 41.2471C89.8574 40.8409 89.2736 40.2871 88.8545 39.5858C88.4354 38.8844 88.2259 38.0869 88.2259 37.1931V28.4949H89.4254V37.1097C89.4254 37.8068 89.5815 38.429 89.8937 38.9764C90.2059 39.5195 90.6442 39.9471 91.2087 40.2593C91.7775 40.5715 92.4425 40.7276 93.2037 40.7276C93.9649 40.7276 94.6298 40.5715 95.1986 40.2593C95.7674 39.9471 96.2057 39.5195 96.5136 38.9764C96.8258 38.429 96.9819 37.8068 96.9819 37.1097V28.4949Z"
        fill="white"
      />
      <path
        d="M110.936 41.632H107.087V28.4949H111.167C112.42 28.4949 113.491 28.7557 114.38 29.2774C115.274 29.7992 115.958 30.5475 116.433 31.5226C116.908 32.4976 117.145 33.6672 117.145 35.0314C117.145 36.4084 116.901 37.5908 116.414 38.5787C115.93 39.5622 115.225 40.317 114.297 40.843C113.373 41.369 112.253 41.632 110.936 41.632ZM108.286 40.5544H110.865C111.994 40.5544 112.939 40.332 113.7 39.8872C114.462 39.4425 115.032 38.8074 115.413 37.9821C115.794 37.1568 115.984 36.1732 115.984 35.0314C115.98 33.8981 115.792 32.9231 115.419 32.1063C115.052 31.2895 114.504 30.663 113.777 30.2268C113.055 29.7906 112.161 29.5725 111.096 29.5725H108.286V40.5544Z"
        fill="white"
      />
      <path d="M126.671 28.4949V41.632H125.471V28.4949H126.671Z" fill="white" />
      <path
        d="M146.353 35.0634C146.353 36.4319 146.109 37.6229 145.622 38.6364C145.134 39.6456 144.463 40.4282 143.608 40.9841C142.757 41.5358 141.777 41.8116 140.67 41.8116C139.562 41.8116 138.581 41.5358 137.725 40.9841C136.874 40.4282 136.205 39.6456 135.718 38.6364C135.234 37.6229 134.993 36.4319 134.993 35.0634C134.993 33.695 135.234 32.5061 135.718 31.4969C136.205 30.4834 136.876 29.7008 137.732 29.1492C138.587 28.5932 139.566 28.3153 140.67 28.3153C141.777 28.3153 142.757 28.5932 143.608 29.1492C144.463 29.7008 145.134 30.4834 145.622 31.4969C146.109 32.5061 146.353 33.695 146.353 35.0634ZM145.186 35.0634C145.186 33.8874 144.989 32.8803 144.595 32.0422C144.202 31.1997 143.665 30.5561 142.985 30.1113C142.305 29.6666 141.534 29.4442 140.67 29.4442C139.81 29.4442 139.04 29.6666 138.36 30.1113C137.68 30.5561 137.142 31.1976 136.744 32.0357C136.35 32.8739 136.154 33.8832 136.154 35.0634C136.154 36.2395 136.35 37.2466 136.744 38.0847C137.137 38.9229 137.674 39.5665 138.354 40.0155C139.034 40.4603 139.806 40.6827 140.67 40.6827C141.534 40.6827 142.305 40.4603 142.985 40.0155C143.67 39.5708 144.208 38.9293 144.602 38.0911C144.995 37.2487 145.19 36.2395 145.186 35.0634Z"
        fill="white"
      />
      <path
        d="M161.806 31.7792C161.734 31.0479 161.411 30.4663 160.838 30.0344C160.265 29.6025 159.544 29.3865 158.676 29.3865C158.064 29.3865 157.526 29.4913 157.059 29.7008C156.598 29.9104 156.234 30.2012 155.969 30.5732C155.708 30.941 155.578 31.3601 155.578 31.8305C155.578 32.1769 155.652 32.4805 155.802 32.7413C155.952 33.0022 156.153 33.2267 156.405 33.4149C156.662 33.5988 156.944 33.757 157.252 33.8896C157.564 34.0221 157.878 34.1333 158.195 34.2231L159.58 34.6208C159.999 34.7363 160.419 34.8838 160.838 35.0634C161.257 35.2431 161.639 35.4697 161.986 35.7434C162.336 36.0128 162.617 36.3442 162.826 36.7377C163.04 37.1268 163.147 37.5951 163.147 38.1425C163.147 38.8438 162.965 39.4746 162.602 40.0348C162.238 40.595 161.716 41.0397 161.036 41.369C160.357 41.694 159.542 41.8565 158.592 41.8565C157.699 41.8565 156.923 41.709 156.264 41.4139C155.605 41.1146 155.088 40.7019 154.712 40.1759C154.335 39.6499 154.124 39.0405 154.077 38.3477H155.308C155.351 38.8652 155.522 39.3035 155.821 39.6627C156.121 40.022 156.51 40.2956 156.989 40.4838C157.468 40.6677 158.002 40.7596 158.592 40.7596C159.247 40.7596 159.828 40.6506 160.337 40.4325C160.85 40.2101 161.252 39.9022 161.543 39.5088C161.838 39.1111 161.986 38.6492 161.986 38.1232C161.986 37.6785 161.87 37.3064 161.639 37.0071C161.409 36.7035 161.086 36.449 160.671 36.2437C160.26 36.0385 159.783 35.8567 159.24 35.6985L157.669 35.2366C156.638 34.9287 155.838 34.5032 155.27 33.9601C154.701 33.417 154.417 32.7242 154.417 31.8818C154.417 31.1762 154.605 30.5561 154.981 30.0215C155.362 29.4827 155.875 29.0636 156.521 28.7643C157.171 28.4607 157.9 28.3088 158.708 28.3088C159.525 28.3088 160.247 28.4585 160.876 28.7579C161.505 29.0572 162.003 29.4699 162.371 29.9959C162.743 30.5176 162.942 31.112 162.967 31.7792H161.806Z"
        fill="white"
      />
    </svg>