<svg
      fill="none"
      viewBox="0 0 48 58"
      xmlns="http://www.w3.org/2000/svg"
    >
      <path
        d="M0 24.0003C0 42.5581 15.0437 57.6044 33.6015 57.6044V52.8038C17.6937 52.8038 4.79985 39.9073 4.79985 23.9995L0 24.0003Z"
        fill="black"
      />
      <path
        d="M33.6005 4.80165C22.9954 4.80165 14.3999 13.3988 14.3999 24.0011C14.3999 34.6062 22.9951 43.203 33.6005 43.203V48.0037C20.3441 48.0037 9.60001 37.2563 9.60001 23.9993C9.60001 10.7441 20.3443 0 33.6005 0V4.80165Z"
        fill="black"
      />
      <path
        d="M33.5987 24.0014V38.4023C25.6439 38.4023 19.1979 31.9543 19.1979 23.9989C19.1979 16.046 25.6439 9.60059 33.5987 9.60059C41.5545 9.60059 47.9995 16.0466 47.9995 23.9989L33.5987 24.0014Z"
        fill="black"
      />
    </svg>