<svg
      fill="none"
      viewBox="0 0 52 52"
      xmlns="http://www.w3.org/2000/svg"
    >
      <path
        d="M48.0022 3.99724H34.3035V0H50.0017C51.1052 0 52 0.894884 52 1.99826V17.6965H48.0028L48.0022 3.99724ZM3.99789 3.99724H17.6965V0H1.99833C1.46843 0 0.960071 0.210256 0.585447 0.585446C0.210272 0.960056 0 1.46842 0 1.99833V17.6965H3.99724L3.99789 3.99724ZM1.99905 51.9986H17.6973V48.0014H3.99862V34.3027H0.00137921V50.0009C0.00137921 51.1044 0.896263 51.9992 1.99963 51.9992L1.99905 51.9986ZM51.9983 50.0004V34.3022H48.001V48.0008H34.3024V51.998H50.0006C51.104 51.998 51.9988 51.1031 51.9988 49.9998L51.9983 50.0004ZM37.666 35.3352V16.6482C37.6683 16.0293 37.4235 15.4348 36.9859 14.9973C36.5479 14.5592 35.9533 14.3144 35.3344 14.3166H16.6475C16.0286 14.3144 15.4341 14.5592 14.9966 14.9973C14.5585 15.4348 14.3137 16.0293 14.3159 16.6482V35.3352C14.3137 35.954 14.5585 36.5486 14.9966 36.9867C15.4341 37.4242 16.0286 37.669 16.6475 37.6668H35.3344C35.9533 37.669 36.5478 37.4242 36.9859 36.9867C37.4235 36.5486 37.6683 35.9541 37.666 35.3352Z"
        fill="black"
      />
    </svg>