<svg
      fill="none"
      viewBox="0 0 52 52"
      xmlns="http://www.w3.org/2000/svg"
    >
      <path d="M0 0H23.8163V23.8163H0V0Z" fill="black" />
      <path
        d="M47.6693 28.1078H32.5147C30.1344 28.1078 28.1843 30.0569 28.1843 32.4373V47.5929C28.1843 49.9738 30.1343 51.9224 32.5147 51.9224H47.6693C50.0505 51.9224 51.9996 49.9738 51.9996 47.5929V32.4373C51.9996 30.0569 50.0505 28.1078 47.6693 28.1078Z"
        fill="black"
      />
      <path
        d="M52.0002 11.9104C52.0002 18.4835 46.6675 23.8163 40.0932 23.8163C33.5174 23.8163 28.1851 18.4836 28.1851 11.9104C28.1851 5.33285 33.5177 0 40.0932 0C46.6681 0 52.0002 5.33262 52.0002 11.9104Z"
        fill="black"
      />
      <path
        d="M12.9903 28.1078L0 51.9229H25.9805L12.9903 28.1078Z"
        fill="black"
      />
    </svg>